<svg width="48" height="48" viewBox="0 0 48 48" fill="none" xmlns="http://www.w3.org/2000/svg">
<path opacity="0.4" fill-rule="evenodd" clip-rule="evenodd" d="M32 33.5C40.2843 33.5 47 26.7843 47 18.5C47 10.2157 40.2843 3.5 32 3.5C23.7157 3.5 17 10.2157 17 18.5C17 26.7843 23.7157 33.5 32 33.5Z" fill="url(#paint0_linear)"/>
<path fill-rule="evenodd" clip-rule="evenodd" d="M32.9854 6.50014V15.9854H38.9707L30.9854 29.4707V19.9854H25.0001L32.9854 6.50014Z" fill="url(#paint1_linear)"/>
<path opacity="0.52" fill-rule="evenodd" clip-rule="evenodd" d="M14.5 18C21.6797 18 27.5 23.8203 27.5 31C27.5 38.1797 21.6797 44 14.5 44C7.3203 44 1.5 38.1797 1.5 31C1.5 28.0444 2.48636 25.3191 4.14786 23.1354L7.40508 25.462C6.21139 26.9891 5.5 28.9115 5.5 31C5.5 35.9706 9.52944 40 14.5 40C19.4706 40 23.5 35.9706 23.5 31C23.5 26.0294 19.4706 22 14.5 22V25L7.5 20L14.5 15V18Z" fill="url(#paint2_linear)"/>
<path fill-rule="evenodd" clip-rule="evenodd" d="M27.3798 32.7751C25.9858 32.3243 24.681 31.6749 23.4989 30.8603C23.4404 27.0199 20.9766 23.7629 17.5473 22.5291C17.1906 21.247 17 19.8959 17 18.5001C17 18.4135 17.0007 18.327 17.0022 18.2407C22.9847 19.4072 27.5 24.6763 27.5 31.0001C27.5 31.6022 27.4591 32.1948 27.3798 32.7751L27.3798 32.7751Z" fill="url(#paint3_linear)"/>
<defs>
<linearGradient id="paint0_linear" x1="58.2791" y1="18.5" x2="28.2791" y2="-4.05829" gradientUnits="userSpaceOnUse">
<stop stop-color="#70B1FF"/>
<stop offset="1" stop-color="#005CCD"/>
</linearGradient>
<linearGradient id="paint1_linear" x1="38.2137" y1="31.8644" x2="41.3907" y2="7.73866" gradientUnits="userSpaceOnUse">
<stop stop-color="#295296"/>
<stop offset="1" stop-color="#3E78D3"/>
</linearGradient>
<linearGradient id="paint2_linear" x1="15.093" y1="44.4711" x2="24.0563" y2="27.1308" gradientUnits="userSpaceOnUse">
<stop stop-color="#70B1FF"/>
<stop offset="1" stop-color="#005CCD"/>
</linearGradient>
<linearGradient id="paint3_linear" x1="31.6481" y1="25.5079" x2="18.7843" y2="18.1652" gradientUnits="userSpaceOnUse">
<stop stop-color="#5C92E3"/>
<stop offset="1" stop-color="#4C83D8"/>
</linearGradient>
</defs>
</svg>
