<svg width="48" height="48" viewBox="0 0 48 48" fill="none" xmlns="http://www.w3.org/2000/svg">
<path opacity="0.35" fill-rule="evenodd" clip-rule="evenodd" d="M7 11H39C41.2091 11 43 12.7909 43 15V34C43 36.2091 41.2091 38 39 38H7C4.79086 38 3 36.2091 3 34V15C3 12.7909 4.79086 11 7 11Z" fill="url(#paint0_linear)"/>
<path opacity="0.4" d="M16 14H12V8C12 5.23858 14.2386 3 17 3H29C31.7614 3 34 5.23858 34 8V14H30V8C30 7.44772 29.5523 7 29 7H17C16.4477 7 16 7.44772 16 8V14Z" fill="url(#paint1_linear)"/>
<path opacity="0.6" fill-rule="evenodd" clip-rule="evenodd" d="M10 35C11.1235 32.6351 13.534 31 16.3264 31C19.1188 31 21.5293 32.6351 22.6527 35H42C43.6569 35 45 36.3431 45 38C45 39.6569 43.6569 41 42 41H22.6527C21.5293 43.3649 19.1188 45 16.3264 45C13.534 45 11.1235 43.3649 10 41H17V35H10Z" fill="url(#paint2_linear)"/>
<path opacity="0.5" fill-rule="evenodd" clip-rule="evenodd" d="M30.0857 28L27 30V20L30.0857 22H42C43.6569 22 45 23.3431 45 25C45 26.6569 43.6569 28 42 28H30.0857Z" fill="url(#paint3_linear)"/>
<rect x="10" y="23" width="17" height="4" fill="url(#paint4_linear)"/>
<defs>
<linearGradient id="paint0_linear" x1="23" y1="-2.5" x2="-2.04079" y2="34.5975" gradientUnits="userSpaceOnUse">
<stop stop-color="#70B1FF"/>
<stop offset="1" stop-color="#005CCD"/>
</linearGradient>
<linearGradient id="paint1_linear" x1="-10.8179" y1="5.47846" x2="0.244851" y2="29.5276" gradientUnits="userSpaceOnUse">
<stop stop-color="#70B1FF"/>
<stop offset="1" stop-color="#005CCD"/>
</linearGradient>
<linearGradient id="paint2_linear" x1="38.9496" y1="23.483" x2="24.5928" y2="47.4382" gradientUnits="userSpaceOnUse">
<stop stop-color="#70B1FF"/>
<stop offset="1" stop-color="#005CCD"/>
</linearGradient>
<linearGradient id="paint3_linear" x1="36" y1="15" x2="27.5094" y2="30.283" gradientUnits="userSpaceOnUse">
<stop stop-color="#70B1FF"/>
<stop offset="1" stop-color="#005CCD"/>
</linearGradient>
<linearGradient id="paint4_linear" x1="55.9535" y1="26.4353" x2="52.625" y2="12.6831" gradientUnits="userSpaceOnUse">
<stop stop-color="#295296"/>
<stop offset="1" stop-color="#3E78D3"/>
</linearGradient>
</defs>
</svg>
