<svg width="48" height="48" viewBox="0 0 48 48" fill="none" xmlns="http://www.w3.org/2000/svg">
<path opacity="0.45" fill-rule="evenodd" clip-rule="evenodd" d="M24 4L44 38H4L24 4ZM24 37C25.1046 37 26 36.1046 26 35C26 33.8954 25.1046 33 24 33C22.8954 33 22 33.8954 22 35C22 36.1046 22.8954 37 24 37ZM26 18H22L22.6706 31H25.3296L26 18Z" fill="url(#paint0_linear)"/>
<path opacity="0.45" fill-rule="evenodd" clip-rule="evenodd" d="M43 42L24 10L5 42H43ZM24 37C25.1046 37 26 36.1046 26 35C26 33.8954 25.1046 33 24 33C22.8954 33 22 33.8954 22 35C22 36.1046 22.8954 37 24 37ZM26 18H22L22.6706 31H25.3296L26 18Z" fill="url(#paint1_linear)"/>
<path opacity="0.45" fill-rule="evenodd" clip-rule="evenodd" d="M7.375 38L24 10L40.625 38H7.375ZM24 37C25.1046 37 26 36.1046 26 35C26 33.8954 25.1046 33 24 33C22.8954 33 22 33.8954 22 35C22 36.1046 22.8954 37 24 37ZM26 18H22L22.6706 31H25.3296L26 18Z" fill="url(#paint2_linear)"/>
<defs>
<linearGradient id="paint0_linear" x1="6.28495" y1="-7.5555" x2="-14.9416" y2="33.6522" gradientUnits="userSpaceOnUse">
<stop stop-color="#70B1FF"/>
<stop offset="1" stop-color="#005CCD"/>
</linearGradient>
<linearGradient id="paint1_linear" x1="7.1707" y1="-0.875762" x2="-12.6987" y2="38.0589" gradientUnits="userSpaceOnUse">
<stop stop-color="#70B1FF"/>
<stop offset="1" stop-color="#005CCD"/>
</linearGradient>
<linearGradient id="paint2_linear" x1="19.0215" y1="10.3301" x2="0.262841" y2="31.7802" gradientUnits="userSpaceOnUse">
<stop stop-color="#86B5FA"/>
<stop offset="1" stop-color="#699BE7"/>
</linearGradient>
</defs>
</svg>
